<?xml version="1.0" encoding="UTF-8"?>
<!DOCTYPE svg PUBLIC "-//W3C//DTD SVG 1.1//EN" "http://www.w3.org/Graphics/SVG/1.1/DTD/svg11.dtd">
<!-- Creator: CorelDRAW -->
<svg xmlns="http://www.w3.org/2000/svg" xml:space="preserve" width="29.2792mm" height="25.3564mm" version="1.1" style="shape-rendering:geometricPrecision; text-rendering:geometricPrecision; image-rendering:optimizeQuality; fill-rule:evenodd; clip-rule:evenodd"
viewBox="0 0 143.5 124.28"
 xmlns:xlink="http://www.w3.org/1999/xlink"
 xmlns:xodm="http://www.corel.com/coreldraw/odm/2003">
 <defs>
  <style type="text/css">
   <![CDATA[
    .fil3 {fill:none}
    .fil1 {fill:#B51433}
    .fil0 {fill:white}
    .fil2 {fill:white;fill-rule:nonzero}
   ]]>
  </style>
     <clipPath id="id0">
      <path d="M71.75 117.76l33.05 -57.25 33.05 -57.25 -66.11 0 -66.11 0 33.05 57.25 33.05 57.25z"/>
     </clipPath>
 </defs>
 <g id="Layer_x0020_1">
  <metadata id="CorelCorpID_0Corel-Layer"/>
  <g id="_2557046057696">
   <g>
    <polygon class="fil0" points="71.75,124.28 -0,0 143.5,0 "/>
    <polygon class="fil1" points="71.75,121.65 37.01,61.48 2.28,1.31 141.23,1.31 106.49,61.48 "/>
    <polygon class="fil1" points="71.75,117.76 104.8,60.51 137.86,3.26 71.75,3.26 5.64,3.26 38.7,60.51 "/>
    <g style="clip-path:url(#id0)">
     <g>
      <path id="_1" class="fil2" d="M81.72 3.4l0 6.36 -6.36 0 0 -6.36 6.36 0zm-13.8 40.71l-28.68 0 0 -5.43 28.68 0 0 -0.98 0 -15.69 6.36 0 0 10.29 0.56 0 0 0.02 0.52 0 0 -13.98 6.36 0 0 20.34 -5.4 0 -2.05 0 0 5.43 -6.36 0zm7.44 -33.24l6.36 0 0 6.36 -6.36 0 0 -6.36z"/>
      <path class="fil2" d="M52.95 25.53l0 -14.63 13.87 0 0 25.82 -20.38 0 -2.95 0 -5.46 0 0 -26.94 -1.1 0 0 26.94 -13.83 0 0 -33.3 6.36 0 0 22.09 1.1 0 0 -22.09 13.83 0 0 26.88 2.05 0 14.02 0 0 -15.76 -1.15 0 0 14.65 -13.83 0 0 -25.77 21.33 0 0 6.36 -14.97 0 0 15.73 1.1 0zm-16.03 18.58l-6.36 0 0 -6.36 6.36 0 0 6.36zm-13.83 0l0 -6.36 6.36 0 0 6.36 -6.36 0z"/>
      <path class="fil2" d="M48.01 60.42l0 8.52 -10.56 0 0 -7.42 4.97 0 0 3.79 1.1 0 0 -4.9 -6.08 0 0 -15.3 10.56 0 0 10.91 2.29 0 0 4.39 -2.29 0zm-5.58 -10.86l0 6.47 1.1 0 0 -6.47 -1.1 0zm20.71 10.86l-16.05 0 0 -4.39 2.27 0 0 -5.85 7.44 0 0 5.85 1.1 0 0 -6.95 -8.55 0 0 -3.95 13.78 0 0 15.3zm-10.5 -7.46l0 3.07 1.1 0 0 -3.07 -1.1 0z"/>
      <path class="fil2" d="M49.12 96.72l0 -35.2 6.56 0 0 28.84 16.78 0 0 6.36 -23.34 0zm44.66 -21.62l0 21.62 -39.24 0 0 -6.36 17.18 0 0 -15.26 22.06 0zm-6.36 5.5l-9.56 0 0 9.76 9.56 0 0 -9.76z"/>
      <path class="fil2" d="M70.61 73.97l0 14.97 -13.83 0 0 -21.41 6.36 0 0 15.05 1.1 0 0 -37.46 6.36 0 0 22.48 2.78 0 0 6.36 -2.78 0zm9.3 -13.83l0 -7.47 13.87 0 0 21.29 -24.07 0 0 -6.36 17.71 0 0 -8.57 -1.15 0 0 7.46 -14.56 0 0 -21.29 39.75 0 0 6.36 -32.66 0 0 8.57 1.1 0z"/>
      <g>
       <path class="fil2" d="M96.53 36.59l0 7.51 -13.71 0 0 -20.83 6.36 0 0 14.47 0.98 0 0 -34.37 6.36 0 0 26.85 1.91 0 0 6.36 -1.91 0zm-0.91 0l0 -6.36 1.91 0 0 -8.16 6.36 0 0 8.16 2.02 0 0 6.36 -10.3 0zm8.37 1.14l0 6.36 -6.36 0 0 -6.36 6.36 0zm14.79 -1.14l-15.85 0 0 -6.36 2.02 0 0 -11.06 13.83 0 0 11.06 0 0 0 6.36zm-6.36 -11.06l-1.1 0 0 4.7 1.1 0 0 -4.7z"/>
      </g>
      <polygon class="fil2" points="111.46,37.71 111.46,44.07 105.1,44.07 105.1,37.71 "/>
      <polygon class="fil2" points="109.24,25.52 109.24,19.16 116.75,19.16 116.75,9.76 115.6,9.76 115.6,14.32 109.24,14.32 109.24,3.4 123.11,3.4 123.11,25.52 "/>
      <polygon class="fil2" points="130.58,3.4 130.58,9.76 124.22,9.76 124.22,3.4 "/>
      <polygon class="fil0" points="14.64,7.52 10.74,7.71 13.77,10.29 12.74,14.26 16.03,12.04 19.29,14.27 18.28,10.29 21.33,7.74 17.44,7.52 16.03,3.69 "/>
     </g>
    </g>
    <polygon class="fil3" points="71.75,117.76 104.8,60.51 137.86,3.26 71.75,3.26 5.64,3.26 38.7,60.51 "/>
    <g>
     <polygon class="fil0" points="71.75,116.78 61.48,99 82.02,99 "/>
    </g>
   </g>
  </g>
 </g>
</svg>
